<?xml version="1.0" encoding="UTF-8"?><svg id="Layer_2" xmlns="http://www.w3.org/2000/svg" viewBox="0 0 23 23"><defs><style>.cls-1{fill:#010101;stroke-width:0px;}</style></defs><g id="Layer_1-2"><path class="cls-1" d="m16.77,10.54c-3.43,0-6.23,2.79-6.23,6.23s2.79,6.23,6.23,6.23,6.23-2.79,6.23-6.23-2.79-6.23-6.23-6.23Zm0,11.5c-2.91,0-5.27-2.36-5.27-5.27s2.36-5.27,5.27-5.27,5.27,2.36,5.27,5.27-2.36,5.27-5.27,5.27Z"/><path class="cls-1" d="m17.11,13.56s-.1-.08-.16-.1c-.12-.05-.25-.05-.37,0-.06.02-.11.06-.16.1l-2.16,2.16c-.19.19-.19.49,0,.68.09.09.22.14.34.14s.25-.05.34-.14l1.34-1.34v4.59c0,.26.21.48.48.48s.48-.21.48-.48v-4.59l1.34,1.34c.09.09.22.14.34.14s.25-.05.34-.14c.19-.19.19-.49,0-.68l-2.16-2.16Z"/><path class="cls-1" d="m10.06,22.04H1.44c-.26,0-.48-.22-.48-.48V1.44c0-.26.21-.48.48-.48h12.74c.13,0,.25.05.34.14l3.55,3.55c.09.09.14.21.14.34v3.16c0,.26.21.48.48.48s.48-.21.48-.48v-3.16c0-.38-.15-.75-.42-1.02L15.19.42c-.27-.27-.63-.42-1.02-.42H1.44C.64,0,0,.64,0,1.44v20.12c0,.79.64,1.44,1.44,1.44h8.62c.26,0,.48-.21.48-.48s-.21-.48-.48-.48Z"/></g></svg>